<svg width="141" height="141" viewBox="0 0 141 141" fill="none" xmlns="http://www.w3.org/2000/svg">
<path d="M11.3495 63.902C6.53488 63.902 2.75195 60.6168 2.75195 56.4357V27.1676C2.75195 20.8959 8.9422 15.8188 16.1641 16.1174C19.6032 16.1174 23.0422 17.6107 25.4495 19.7012C25.1056 18.5066 24.7617 17.312 24.7617 15.8188C25.1056 8.35241 32.3276 2.37933 40.9251 2.37933C47.4593 2.37933 53.3056 6.26183 55.369 11.6376C61.9032 6.56049 71.8763 7.15779 77.7227 13.1309C78.4105 14.0268 79.4422 14.9228 79.7861 15.8188C82.1934 14.3255 84.6007 13.7282 87.6959 13.7282C94.9178 13.7282 100.764 18.8053 100.764 25.077C100.764 27.7649 99.7324 30.1541 97.669 32.2447L96.6373 33.4393H72.2202C72.2202 33.738 72.2202 33.738 72.2202 34.0366C72.2202 35.2312 72.2202 36.1272 72.2202 37.3218C72.2202 37.9191 72.2202 38.5164 72.2202 38.8151C72.2202 46.2814 64.9983 52.2545 56.0568 52.2545C48.8349 52.2545 42.3007 47.476 40.9251 41.2043C37.83 46.8787 29.9202 49.268 23.3861 46.5801C22.0105 45.9828 20.9788 45.3855 19.9471 44.4895V56.7343C19.9471 60.9155 16.1641 64.2007 11.3495 63.902Z" fill="white"/>
<path d="M72.2199 33.4393H58.8077C58.8077 33.738 58.8077 33.738 58.8077 34.0366C58.8077 35.2313 58.8077 36.1272 58.8077 37.3218C58.8077 37.9191 58.8077 38.5164 58.8077 38.8151C58.8077 43.8922 55.0247 48.6707 49.8662 50.7612C51.9296 51.6572 54.3369 51.9559 56.4004 51.9559C64.9979 51.9559 72.2199 45.9828 72.2199 38.5164C72.2199 38.2178 72.2199 37.6205 72.2199 37.0232C72.2199 35.8286 72.2199 34.9326 72.2199 33.738C72.2199 33.738 72.2199 33.738 72.2199 33.4393Z" fill="#F7EEBA"/>
<path d="M87.6953 14.0269C85.288 14.0269 83.2245 14.6242 81.1611 15.5201C87.3514 18.5067 89.4148 25.077 85.9758 30.4528C85.6319 31.0501 84.9441 31.6474 84.6002 32.2447L83.5684 33.4393H96.9806L98.0124 32.2447C100.076 30.1542 101.107 27.7649 101.107 25.077C100.764 19.104 94.9172 14.0269 87.6953 14.0269Z" fill="#F7EEBA"/>
<path d="M26.4804 137.968C19.9463 138.565 14.0999 134.683 13.4121 129.008C13.4121 128.112 13.4121 127.515 13.4121 126.619V64.2003L15.4755 63.3043C18.5706 62.1097 20.2902 59.4218 20.2902 56.734V45.6838L24.7609 47.177C26.1365 47.4757 27.5121 47.7743 29.2316 47.7743C32.3267 47.7743 35.7658 46.8784 38.1731 45.0865L41.2682 42.6972L43.3316 45.6838C46.0828 49.8649 51.2414 52.2542 56.7438 52.2542C65.3414 52.2542 72.5633 46.2811 72.5633 38.8147C72.5633 38.5161 72.5633 37.9188 72.5633 37.3215L72.9072 33.439H95.6048C97.6682 33.439 99.3877 34.9322 99.3877 36.7242V126.619C100.076 132.293 95.6048 137.37 89.0706 137.968C88.0389 137.968 87.3511 137.968 86.3194 137.968H26.4804Z" fill="#FBCF4C"/>
<path d="M95.2614 33.4393H77.0345C79.098 33.4393 80.4736 34.9326 80.4736 36.7245V126.619C81.1614 132.294 76.6906 137.371 70.1565 137.968C69.1248 137.968 68.437 137.968 67.4053 137.968H85.6321C92.1662 138.565 98.0126 134.683 98.7004 129.009C98.7004 128.113 98.7004 127.515 98.7004 126.619V36.7245C98.7004 34.9326 97.3248 33.4393 95.2614 33.4393Z" fill="#EDB248"/>
<path d="M99.0439 122.139V105.415H111.424C119.334 105.415 120.022 98.5455 120.022 95.559V75.8478C120.022 72.8613 119.334 65.9922 111.424 65.9922H99.0439V49.5663H121.742C131.715 49.5663 137.561 56.1367 137.561 67.4855V103.921C137.561 115.27 131.715 121.84 121.742 121.84L99.0439 122.139Z" fill="#FBCF4C"/>
<path d="M121.742 49.5667H110.737C120.71 49.5667 126.557 56.137 126.557 67.4859V103.922C126.557 115.27 120.71 121.841 110.737 121.841H121.742C131.715 121.841 137.562 115.27 137.562 103.922V67.4859C137.562 56.137 131.715 49.5667 121.742 49.5667Z" fill="#EDB248"/>
<path d="M121.741 46.5801H102.483V36.7245C102.483 35.5299 102.139 34.3353 101.451 33.4393C103.515 31.0501 104.546 28.3622 104.546 25.3757C104.546 17.312 96.9805 11.0403 87.6951 11.0403C85.6317 11.0403 83.2244 11.3389 81.5049 12.2349C75.6585 5.96318 65.6854 3.87261 57.4317 7.75511C51.9293 -0.00989103 39.8927 -2.39912 30.9512 2.67799C26.1366 5.36588 23.0415 9.54703 22.3537 14.3255C13.7561 11.6376 4.12683 15.2214 1.03171 22.6878C0.343902 24.1811 0 25.973 0 27.4663V56.7343C0 61.8114 4.47073 66.2912 10.3171 66.8885V126.619C9.62927 133.787 15.8195 140.357 24.0732 140.955C25.1049 140.955 25.7927 140.955 26.8244 140.955H86.3195C94.5732 141.552 102.139 136.176 102.827 129.009C102.827 128.113 102.827 127.515 102.827 126.619V125.126H121.741C133.778 125.126 141 117.361 141 104.22V67.4858C141 54.3451 133.778 46.5801 121.741 46.5801ZM95.6049 126.619C96.2927 130.8 93.1976 134.384 88.3829 134.981C87.6951 134.981 86.6634 134.981 85.9756 134.981H26.4805C21.6659 135.579 17.539 132.891 16.8512 128.709C16.8512 128.112 16.8512 127.216 16.8512 126.619V65.9922C20.978 64.2003 23.7293 60.6164 23.7293 56.7339V49.8649C29.5756 51.6568 35.7659 50.4622 40.2366 47.177C45.739 54.942 57.4317 57.6299 66.7171 52.8514C72.2195 49.8649 75.6585 44.4891 76.0024 38.8147C76.0024 38.5161 76.0024 37.9188 76.0024 37.6201C76.0024 37.3215 76.0024 37.0228 76.0024 36.7241H95.6049C95.6049 36.7241 95.9488 36.7241 95.9488 37.0228V126.619H95.6049V126.619ZM95.261 30.4528H72.2195C70.1561 30.4528 68.7805 31.6474 68.7805 33.4393C68.7805 33.738 68.7805 33.738 68.7805 34.0366V34.3353C68.7805 35.2312 68.7805 36.1272 68.7805 37.0232C68.7805 37.6205 68.7805 38.2178 68.7805 38.8151C68.7805 44.7882 62.9341 49.268 56.0561 49.268C50.2098 49.268 45.3951 45.6841 44.3634 40.607C44.0195 39.4124 42.9878 38.2178 41.2683 38.2178C39.8927 38.2178 38.5171 38.8151 37.8293 40.0097C35.422 44.1909 29.5756 45.9828 24.761 43.8922C23.7293 43.5936 23.0415 42.9962 22.3537 42.3989C20.978 41.2043 18.9146 41.2043 17.539 42.3989C16.8512 42.9962 16.5073 43.5936 16.5073 44.4895V56.7343C16.5073 59.1235 14.1 61.2141 11.3488 61.2141C8.59756 61.2141 6.19024 59.1235 6.19024 56.7343V27.4663C6.19024 22.6878 11.0049 19.1039 16.1634 19.4026C18.9146 19.4026 21.322 20.5972 23.0415 22.0905C24.4171 23.2851 26.4805 23.5838 27.8561 22.3891C28.8878 21.4932 29.2317 20.2986 28.8878 19.1039C28.5439 18.208 28.2 17.0134 28.2 16.1174C28.2 10.1443 33.7024 5.36588 40.2366 5.36588C45.739 5.36588 50.5537 8.35241 52.2732 12.8322C52.961 14.3255 54.6805 15.2214 56.7439 14.6241C57.0878 14.6241 57.4317 14.3255 57.7756 14.0268C62.9341 10.1443 70.8439 10.7416 74.9707 15.5201C75.6585 16.1174 76.0024 17.0134 76.6902 17.6107C77.378 19.1039 79.4415 19.7013 81.161 18.8053L81.5049 18.5066C83.2244 17.6107 85.2878 17.0134 87.3512 17.0134C92.5098 17.0134 96.9805 20.5972 96.9805 25.077C97.6683 27.1676 96.6366 28.9595 95.261 30.4528ZM102.483 69.2778H111.424C114.863 69.2778 116.583 71.667 116.583 76.1468V95.858C116.583 100.338 114.863 102.727 111.424 102.727H102.483V69.2778ZM134.122 104.22C134.122 109.894 132.402 119.153 121.741 119.153H102.483V108.401H111.424C118.99 108.401 123.461 103.623 123.461 95.5589V75.8478C123.461 68.0828 118.99 63.0057 111.424 63.0057H102.483V52.5528H121.741C132.402 52.5528 134.122 61.8111 134.122 67.4855V104.22Z" fill="#4A2328"/>
<path d="M31.6392 61.2141C29.5758 61.2141 28.2002 62.4087 28.2002 64.2006V113.18C28.2002 114.972 29.5758 116.166 31.6392 116.166C33.7026 116.166 35.0782 114.972 35.0782 113.18V64.2006C35.0782 62.4087 33.3587 61.2141 31.6392 61.2141Z" fill="#4A2328"/>
<path d="M47.8033 61.2141C45.7399 61.2141 44.3643 62.4087 44.3643 64.2006V113.18C44.3643 114.972 45.7399 116.166 47.8033 116.166C49.8667 116.166 51.2423 114.972 51.2423 113.18V64.2006C51.2423 62.4087 49.8667 61.2141 47.8033 61.2141Z" fill="#4A2328"/>
<path d="M64.3101 61.2141C62.2467 61.2141 60.8711 62.4087 60.8711 64.2006V113.18C60.8711 114.972 62.2467 116.166 64.3101 116.166C66.3735 116.166 67.7491 114.972 67.7491 113.18V64.2006C67.7491 62.4087 66.0296 61.2141 64.3101 61.2141Z" fill="#4A2328"/>
<path d="M80.4732 61.2141C78.4098 61.2141 77.0342 62.4087 77.0342 64.2006V113.18C77.0342 114.972 78.4098 116.166 80.4732 116.166C82.5366 116.166 83.9122 114.972 83.9122 113.18V64.2006C83.9122 62.4087 82.5366 61.2141 80.4732 61.2141Z" fill="#4A2328"/>
</svg>
