<svg width="175" height="169" fill="none" xmlns="http://www.w3.org/2000/svg"><path d="M38.251 21.325C29.26 55.245 5.85 73.786 1.515 90.134c-4.334 16.347-4.22 53.213 69.522 73.543 73.741 20.33 96.807-22.865 101.569-40.848C194.93 38.643 54.178-38.751 38.251 21.325z" fill="#EFEFEF"/><path d="M37.35 75.902c-4.815 0-8.598-3.285-8.598-7.466V39.168c0-6.272 6.19-11.35 13.412-11.05 3.44 0 6.878 1.493 9.285 3.583-.343-1.194-.687-2.389-.687-3.882.344-7.466 7.566-13.44 16.163-13.44 6.534 0 12.38 3.883 14.444 9.259 6.534-5.078 16.507-4.48 22.354 1.493.687.896 1.719 1.792 2.063 2.688 2.407-1.493 4.815-2.09 7.91-2.09 7.222 0 13.068 5.076 13.068 11.348 0 2.688-1.032 5.077-3.095 7.168l-1.032 1.194H98.22v5.376c0 7.467-7.222 13.44-16.163 13.44-7.222 0-13.756-4.779-15.132-11.05-3.095 5.674-11.005 8.063-17.539 5.375-1.376-.597-2.407-1.194-3.439-2.09v12.244c0 4.181-3.783 7.467-8.598 7.168z" fill="#fff"/><path d="M98.22 45.44H84.808v5.375c0 5.077-3.783 9.855-8.942 11.946 2.064.896 4.47 1.195 6.534 1.195 8.598 0 15.82-5.973 15.82-13.44v-1.493-3.285-.299zM113.695 26.027c-2.407 0-4.47.597-6.534 1.493 6.19 2.987 8.254 9.557 4.815 14.933-.344.597-1.032 1.194-1.376 1.792l-1.032 1.194h13.413l1.031-1.194c2.064-2.09 3.095-4.48 3.095-7.168-.343-5.973-6.19-11.05-13.412-11.05z" fill="#F7EEBA"/><path d="M52.48 149.968c-6.534.597-12.38-3.285-13.068-8.96V76.2l2.063-.896c3.096-1.194 4.815-3.882 4.815-6.57v-11.05l4.47 1.493c1.377.299 2.752.597 4.472.597 3.095 0 6.534-.896 8.941-2.688l3.095-2.389 2.064 2.987c2.75 4.18 7.91 6.57 13.412 6.57 8.597 0 15.82-5.973 15.82-13.44v-1.492l.343-3.883h22.698c2.063 0 3.783 1.493 3.783 3.285v89.895c.688 5.674-3.783 10.751-10.317 11.349H52.48z" fill="#FBCF4C"/><path d="M121.261 45.44h-18.226c2.063 0 3.439 1.492 3.439 3.284v89.895c.687 5.675-3.783 10.752-10.318 11.349h-2.75 18.226c6.534.597 12.381-3.285 13.068-8.96V48.724c0-1.791-1.375-3.285-3.439-3.285z" fill="#EDB248"/><path d="M125.044 134.139v-16.725h12.38c7.91 0 8.598-6.869 8.598-9.855V87.848c0-2.987-.688-9.856-8.598-9.856h-12.38V61.566h22.698c9.973 0 15.819 6.57 15.819 17.92v36.435c0 11.349-5.846 17.919-15.819 17.919l-22.698.299z" fill="#FBCF4C"/><path d="M147.742 61.567h-11.005c9.973 0 15.82 6.57 15.82 17.919v36.436c0 11.348-5.847 17.919-15.82 17.919h11.005c9.973 0 15.82-6.571 15.82-17.919V79.486c0-11.349-5.847-17.92-15.82-17.92z" fill="#EDB248"/><path d="M147.741 58.58h-19.258v-9.855c0-1.195-.344-2.39-1.032-3.286 2.064-2.389 3.095-5.077 3.095-8.063 0-8.064-7.566-14.336-16.851-14.336-2.063 0-4.471.299-6.19 1.195-5.846-6.272-15.82-8.362-24.073-4.48-5.503-7.765-17.54-10.154-26.48-5.077-4.815 2.688-7.91 6.869-8.598 11.648-8.598-2.688-18.227.895-21.322 8.362C26.344 36.18 26 37.973 26 39.466v29.268c0 5.077 4.47 9.557 10.317 10.154v59.731c-.688 7.168 5.502 13.738 13.756 14.336h62.247c8.253.597 15.819-4.779 16.507-11.946v-3.883h18.914c12.037 0 19.259-7.765 19.259-20.906V79.486c0-13.14-7.222-20.906-19.259-20.906zm-26.136 80.039c.688 4.181-2.407 7.765-7.222 8.362H52.481c-4.815.598-8.942-2.09-9.63-6.271V77.992c4.127-1.792 6.878-5.376 6.878-9.258v-6.87c5.847 1.793 12.037.598 16.508-2.687 5.502 7.765 17.195 10.453 26.48 5.674 5.502-2.986 8.942-8.362 9.285-14.036V49.62v-.896h19.603s.344 0 .344.299v89.596h-.344zm-.344-96.166H98.22c-2.064 0-3.44 1.194-3.44 2.986v5.376c0 5.973-5.846 10.453-12.724 10.453-5.846 0-10.66-3.584-11.693-8.661-.344-1.195-1.375-2.39-3.095-2.39-1.375 0-2.75.598-3.439 1.793-2.407 4.18-8.253 5.973-13.068 3.882-1.032-.298-1.72-.896-2.407-1.493a3.682 3.682 0 00-4.815 0c-.688.597-1.032 1.195-1.032 2.09v12.245c0 2.39-2.407 4.48-5.158 4.48-2.751 0-5.159-2.09-5.159-4.48V39.466c0-4.778 4.815-8.362 9.973-8.063 2.752 0 5.159 1.194 6.879 2.688 1.375 1.194 3.438 1.493 4.814.298 1.032-.896 1.376-2.09 1.032-3.285-.344-.896-.688-2.09-.688-2.987 0-5.973 5.502-10.751 12.037-10.751 5.502 0 10.317 2.986 12.036 7.466.688 1.494 2.407 2.39 4.47 1.792.345 0 .689-.298 1.033-.597 5.158-3.883 13.068-3.285 17.195 1.493.688.597 1.031 1.493 1.719 2.09.688 1.494 2.751 2.091 4.471 1.195l.344-.298c1.719-.896 3.783-1.494 5.846-1.494 5.159 0 9.629 3.584 9.629 8.064.688 2.09-.343 3.883-1.719 5.376zm7.222 38.825h8.941c3.439 0 5.159 2.389 5.159 6.869v19.711c0 4.48-1.72 6.869-5.159 6.869h-8.941v-33.45zm31.639 34.942c0 5.674-1.72 14.933-12.381 14.933h-19.258v-10.752h8.941c7.566 0 12.037-4.778 12.037-12.842V87.848c0-7.765-4.471-12.842-12.037-12.842h-8.941V64.553h19.258c10.661 0 12.381 9.258 12.381 14.933v36.734z" fill="#4A2328"/><path d="M57.64 73.214c-2.064 0-3.44 1.195-3.44 2.987v48.979c0 1.792 1.376 2.986 3.44 2.986 2.063 0 3.438-1.194 3.438-2.986V76.2c0-1.791-1.72-2.986-3.439-2.986zM73.803 73.214c-2.063 0-3.439 1.195-3.439 2.987v48.979c0 1.792 1.376 2.986 3.44 2.986 2.063 0 3.438-1.194 3.438-2.986V76.2c0-1.791-1.375-2.986-3.439-2.986zM90.31 73.214c-2.063 0-3.439 1.195-3.439 2.987v48.979c0 1.792 1.376 2.986 3.44 2.986 2.063 0 3.438-1.194 3.438-2.986V76.2c0-1.791-1.72-2.986-3.439-2.986zM106.473 73.214c-2.063 0-3.439 1.195-3.439 2.987v48.979c0 1.792 1.376 2.986 3.439 2.986 2.064 0 3.439-1.194 3.439-2.986V76.2c0-1.791-1.375-2.986-3.439-2.986z" fill="#4A2328"/><path d="M22.833 29.667A5.84 5.84 0 0117 23.833 5.84 5.84 0 0122.833 18a5.84 5.84 0 015.834 5.833 5.84 5.84 0 01-5.834 5.834zm0-7.778a1.945 1.945 0 10.002 3.89 1.945 1.945 0 00-.002-3.89z" fill="#A4AFC1"/></svg>