<svg width="139" height="126" viewBox="0 0 139 126" fill="none" xmlns="http://www.w3.org/2000/svg">
<path d="M135.215 71.7296C120.507 49.209 122.071 26.1246 114.981 15.2707C107.892 4.41679 86.7634 -14.2965 36.8417 18.3118C-13.08 50.9201 -0.38274 86.3673 7.41837 98.3023C43.9273 154.193 161.267 111.614 135.215 71.7296V71.7296Z" fill="#EFEFEF"/>
<path d="M37.3945 47.988V98.5436C37.3945 102.821 40.8945 106.321 45.1723 106.321H93.7834C98.0612 106.321 101.561 102.821 101.561 98.5436V47.988H37.3945Z" fill="#F3F3F1"/>
<path d="M109.338 47.988H29.6162V38.2658C29.6162 33.9686 33.0968 30.488 37.394 30.488H101.561C105.858 30.488 109.338 33.9686 109.338 38.2658V47.988Z" fill="#2FDF84"/>
<path d="M46.1445 98.5436V47.988H37.3945V98.5436C37.3945 102.821 40.8945 106.321 45.1723 106.321H53.9223C49.6445 106.321 46.1445 102.821 46.1445 98.5436Z" fill="#D5DBE1"/>
<path d="M46.144 30.488H37.394C33.0968 30.488 29.6162 33.9686 29.6162 38.2658V47.988H38.3662V38.2658C38.3662 33.9686 41.8468 30.488 46.144 30.488Z" fill="#00B871"/>
<path d="M15.1748 11.1556L17.9247 8.40578L23.4244 13.9055L20.6745 16.6554L15.1748 11.1556Z" fill="#A4AFC1"/>
<path d="M14.4873 29.71L19.987 24.2102L22.7369 26.9601L17.2372 32.4598L14.4873 29.71Z" fill="#A4AFC1"/>
<path d="M30.2969 13.9031L35.7966 8.40336L38.5464 11.1532L33.0467 16.6529L30.2969 13.9031Z" fill="#A4AFC1"/>
<path d="M107.395 16.4685C104.179 16.4685 101.562 13.8513 101.562 10.6352C101.562 7.4191 104.179 4.80188 107.395 4.80188C110.611 4.80188 113.228 7.4191 113.228 10.6352C113.228 13.8513 110.611 16.4685 107.395 16.4685ZM107.395 8.69077C106.322 8.69077 105.45 9.56188 105.45 10.6352C105.45 11.7085 106.322 12.5797 107.395 12.5797C108.468 12.5797 109.339 11.7085 109.339 10.6352C109.339 9.56188 108.468 8.69077 107.395 8.69077Z" fill="#A4AFC1"/>
<path d="M93.7831 109.238H45.172C39.2725 109.238 34.4775 104.443 34.4775 98.5436V47.988H40.3109V98.5436C40.3109 101.223 42.4925 103.405 45.172 103.405H93.7831C96.4625 103.405 98.6442 101.223 98.6442 98.5436V47.988H104.478V98.5436C104.478 104.443 99.6825 109.238 93.7831 109.238Z" fill="black"/>
<path d="M109.339 50.9046H90.8669V45.0713H106.422V38.2657C106.422 35.5863 104.241 33.4046 101.561 33.4046H37.3946C34.7152 33.4046 32.5335 35.5863 32.5335 38.2657V45.0713H85.0335V50.9046H29.6169C28.0069 50.9046 26.7002 49.598 26.7002 47.988V38.2657C26.7002 32.3663 31.4952 27.5713 37.3946 27.5713H101.561C107.461 27.5713 112.256 32.3663 112.256 38.2657V47.988C112.256 49.598 110.949 50.9046 109.339 50.9046Z" fill="black"/>
<path d="M88.9231 30.488H83.0897V22.7102C83.0897 22.1736 82.6542 21.738 82.1175 21.738H56.8397C56.3031 21.738 55.8675 22.1736 55.8675 22.7102V30.488H50.0342V22.7102C50.0342 18.9574 53.087 15.9047 56.8397 15.9047H82.1175C85.8703 15.9047 88.9231 18.9574 88.9231 22.7102V30.488Z" fill="black"/>
<path d="M66.5615 65.488H72.3949V90.7658H66.5615V65.488Z" fill="black"/>
<path d="M50.0342 65.488H55.8675V90.7658H50.0342V65.488Z" fill="black"/>
<path d="M83.0898 65.488H88.9232V90.7658H83.0898V65.488Z" fill="black"/>
<path d="M7.25586 103.405H131.7V109.238H7.25586V103.405Z" fill="black"/>
</svg>
