<svg width="140" height="140" fill="none" xmlns="http://www.w3.org/2000/svg"><path d="M135.737 79.158c-14.707-22.52-13.144-45.605-20.233-56.459-7.09-10.854-28.218-29.567-78.14 3.041C-12.557 58.35.14 93.796 7.941 105.731c36.509 55.891 153.848 13.312 127.796-26.573z" fill="#EFEFEF"/><path d="M37.917 55.417v50.555c0 4.278 3.5 7.778 7.778 7.778h48.61c4.279 0 7.779-3.5 7.779-7.778V55.417H37.917z" fill="#F3F3F1"/><path d="M109.861 55.417H30.139v-9.723a7.776 7.776 0 017.777-7.777h64.167a7.776 7.776 0 017.778 7.777v9.723z" fill="#2FDF84"/><path d="M46.667 105.972V55.417h-8.75v50.555c0 4.278 3.5 7.778 7.778 7.778h8.75c-4.278 0-7.778-3.5-7.778-7.778z" fill="#D5DBE1"/><path d="M46.666 37.917h-8.75a7.776 7.776 0 00-7.777 7.777v9.723h8.75v-9.723a7.776 7.776 0 017.777-7.777z" fill="#00B871"/><path d="M15.697 18.584l2.75-2.75 5.5 5.5-2.75 2.75-5.5-5.5zM15.01 37.139l5.5-5.5 2.75 2.75-5.5 5.5-2.75-2.75zM30.82 21.332l5.5-5.5 2.749 2.75-5.5 5.5-2.75-2.75zM107.917 23.897a5.84 5.84 0 01-5.833-5.833 5.84 5.84 0 015.833-5.833 5.841 5.841 0 015.834 5.833 5.841 5.841 0 01-5.834 5.833zm0-7.777a1.945 1.945 0 10.002 3.89 1.945 1.945 0 00-.002-3.89z" fill="#A4AFC1"/><path d="M94.306 116.667H45.694c-5.899 0-10.694-4.795-10.694-10.695V55.417h5.833v50.555a4.867 4.867 0 004.861 4.861h48.612a4.867 4.867 0 004.86-4.861V55.417H105v50.555c0 5.9-4.795 10.695-10.694 10.695z" fill="#000"/><path d="M109.862 58.333H91.389V52.5h15.556v-6.806a4.868 4.868 0 00-4.861-4.86H37.917a4.868 4.868 0 00-4.861 4.86V52.5h52.5v5.833H30.139a2.918 2.918 0 01-2.916-2.916v-9.723C27.223 39.795 32.018 35 37.917 35h64.167c5.899 0 10.694 4.795 10.694 10.694v9.723a2.917 2.917 0 01-2.916 2.916z" fill="#000"/><path d="M89.445 37.917h-5.833v-7.778a.973.973 0 00-.972-.972H57.362a.973.973 0 00-.972.972v7.778h-5.833v-7.778a6.813 6.813 0 016.805-6.806H82.64a6.813 6.813 0 016.805 6.806v7.778zM67.084 72.917h5.833v25.278h-5.833V72.917zM50.557 72.917h5.833v25.278h-5.833V72.917zM83.612 72.917h5.834v25.278h-5.834V72.917zM7.778 110.833h124.445v5.834H7.778v-5.834z" fill="#000"/></svg>