<svg width="138" height="130" fill="none" xmlns="http://www.w3.org/2000/svg"><path d="M30.555 16.638C23.535 42.604 5.26 56.798 1.878 69.313c-3.383 12.514-3.294 40.736 54.27 56.299 57.563 15.563 75.568-17.504 79.286-31.27C152.86 29.895 42.987-29.352 30.554 16.638z" fill="#EFEFEF"/><path d="M102.678 43.106L90.934 54.889 77.167 41.122 88.95 29.378c2.256-2.295 5.95-2.295 8.245 0l5.483 5.483c2.295 2.295 2.295 5.989 0 8.245z" fill="#F3F3F1"/><path d="M83.972 45.011l11.784-11.744c1.019-1.039 2.341-1.54 3.69-1.638l-2.251-2.251c-2.295-2.295-5.99-2.295-8.245 0L77.167 41.122 90.934 54.89l1.454-1.462-8.416-8.416z" fill="#D5DBE1"/><path d="M90.934 54.889L49.09 96.733l-18.006 4.239 4.239-18.005 41.844-41.845L90.934 54.89z" fill="#2FDF84"/><path d="M42.128 86.856l40.386-40.387-5.347-5.347-41.844 41.845-4.239 18.005 8.174-1.925 2.87-12.191z" fill="#00B871"/><path d="M51.015 17.719h7.777v3.889h-7.777v-3.89zM28.653 17.719h7.778v3.889h-7.778v-3.89zM42.265 4.108h3.889v7.778h-3.89V4.108zM42.265 26.469h3.889v7.778h-3.89v-7.778zM20.89 121.389a5.84 5.84 0 01-5.832-5.833 5.84 5.84 0 015.833-5.834 5.84 5.84 0 015.833 5.834 5.84 5.84 0 01-5.833 5.833zm0-7.778a1.945 1.945 0 10.002 3.89 1.945 1.945 0 00-.001-3.89z" fill="#A4AFC1"/><path d="M60.25 98.056h52.5v5.833h-52.5v-5.833zM31.084 103.889a2.895 2.895 0 01-2.061-.856 2.918 2.918 0 01-.778-2.73l4.239-17.986a2.886 2.886 0 01.777-1.392l53.624-53.624c3.298-3.301 9.07-3.31 12.375 0l5.499 5.5a8.695 8.695 0 012.562 6.186c0 2.337-.91 4.539-2.562 6.188l-53.624 53.62a2.921 2.921 0 01-1.392.777l-17.987 4.239a2.832 2.832 0 01-.672.078zM37.97 84.46l-2.967 12.592 12.592-2.967 53.037-53.037a2.895 2.895 0 00.855-2.06c0-.779-.303-1.514-.855-2.062l-5.5-5.503c-1.1-1.1-3.025-1.1-4.121 0L37.97 84.46z" fill="#000"/><path d="M75.105 43.194l4.124-4.125 13.75 13.75-4.125 4.124-13.75-13.75z" fill="#000"/></svg>