<svg width="27" height="27" viewBox="0 0 27 27" fill="none" xmlns="http://www.w3.org/2000/svg">
<path d="M13.5 0C6.04575 0 0 6.04463 0 13.5C0 19.4648 3.86775 24.525 9.23287 26.3104C9.90675 26.4352 10.125 26.0168 10.125 25.6612V23.148C6.36975 23.9648 5.58787 21.555 5.58787 21.555C4.97363 19.9946 4.08825 19.5795 4.08825 19.5795C2.86313 18.7414 4.18162 18.7594 4.18162 18.7594C5.53725 18.8539 6.2505 20.151 6.2505 20.151C7.45425 22.2143 9.40838 21.618 10.179 21.2726C10.2994 20.4008 10.6493 19.8045 11.0363 19.4681C8.03813 19.125 4.88587 17.9674 4.88587 12.7957C4.88587 11.3209 5.4135 10.1171 6.27637 9.17212C6.13688 8.83125 5.6745 7.45763 6.408 5.59913C6.408 5.59913 7.542 5.23687 10.1216 6.98287C11.1982 6.68362 12.3525 6.534 13.5 6.52838C14.6475 6.534 15.8029 6.68362 16.8818 6.98287C19.4591 5.23687 20.5909 5.59913 20.5909 5.59913C21.3255 7.45875 20.8631 8.83237 20.7236 9.17212C21.5899 10.1171 22.113 11.322 22.113 12.7957C22.113 17.9809 18.9551 19.1227 15.9491 19.4569C16.4329 19.8754 16.875 20.6966 16.875 21.9566V25.6612C16.875 26.0201 17.091 26.442 17.7761 26.3092C23.1367 24.5216 27 19.4625 27 13.5C27 6.04463 20.9554 0 13.5 0Z" fill="black"/>
</svg>
