<svg width="60" height="60" xmlns="http://www.w3.org/2000/svg" xmlns:xlink="http://www.w3.org/1999/xlink"><g transform="translate(-1735 -4945)"><clipPath id="a" clip-rule="evenodd"><path d="M1735 4945h60v60h-60v-60z" fill="#FFF"/></clipPath><g clip-path="url(#a)"><use xlink:href="#path0_stroke" transform="translate(1737.9 4998.69)" fill="#102B7B"/><mask id="b"><use xlink:href="#path1_fill" transform="translate(1743.48 4985.01)" fill="#C4C4C4"/></mask><g mask="url(#b)"><use xlink:href="#path1_fill" transform="translate(1747.69 4985.01)" fill="#D9F5FD"/></g><mask id="c"><use xlink:href="#path1_fill" fill="#fff" transform="translate(1743.48 4985.01)"/></mask><g mask="url(#c)"><use xlink:href="#path2_stroke_2x" transform="translate(1743.48 4985.01)" fill="#102B7B"/></g><mask id="d"><use xlink:href="#path3_fill" transform="translate(1757.35 4975.36)" fill="#C4C4C4"/></mask><g mask="url(#d)"><use xlink:href="#path3_fill" transform="translate(1759.93 4975.36)" fill="#D9F5FD"/></g><g mask="url(#d)"><mask id="e"><use xlink:href="#path3_fill" fill="#fff" transform="translate(1757.35 4975.36)"/></mask><g mask="url(#e)"><use xlink:href="#path4_stroke_2x" transform="translate(1757.35 4975.36)" fill="#102B7B"/></g></g><mask id="f"><use xlink:href="#path5_fill" fill="#fff" transform="translate(1756.25 4975.36)"/></mask><g mask="url(#f)"><use xlink:href="#path6_stroke_2x" transform="translate(1756.25 4975.36)" fill="#102B7B"/></g><mask id="g"><use xlink:href="#path7_fill" transform="translate(1758.53 4959.9)" fill="#C4C4C4"/></mask><g mask="url(#g)"><use xlink:href="#path7_fill" transform="translate(1761.07 4959.9)" fill="#D9F5FD"/></g><g><mask id="h"><use xlink:href="#path8_fill" fill="#fff" transform="translate(1758.53 4959.9)"/></mask><g mask="url(#h)"><use xlink:href="#path9_stroke_2x" transform="translate(1758.53 4959.9)" fill="#102B7B"/></g></g><g><mask id="i"><use xlink:href="#path10_fill" fill="#fff" transform="translate(1761.02 4959.9)"/></mask><g mask="url(#i)"><use xlink:href="#path11_stroke_2x" transform="translate(1761.02 4959.9)" fill="#102B7B"/></g></g><g><mask id="j"><use xlink:href="#path12_fill" fill="#fff" transform="translate(1764.35 4956.23)"/></mask><g mask="url(#j)"><use xlink:href="#path13_stroke_2x" transform="translate(1764.35 4956.23)" fill="#102B7B"/></g></g><g><use xlink:href="#path14_stroke" transform="translate(1760.8 4979.81)" fill="#102B7B"/></g><g><use xlink:href="#path15_stroke" transform="translate(1764.97 4979.88)" fill="#102B7B"/></g></g></g><defs><path id="path0_stroke" d="M0-.75a.75.75 0 100 1.5v-1.5zM54.208.75a.75.75 0 000-1.5v1.5zM0 .75h54.208v-1.5H0v1.5z"/><path id="path1_fill" d="M14.09 0h14.851c7.732 1.173 14.091 8.207 14.091 14.39H0C0 8.207 6.36 1.173 14.09 0z"/><path id="path2_stroke_2x" d="M14.09 0v-1.5h-.112l-.112.017L14.09 0zm14.851 0l.225-1.483-.111-.017h-.114V0zm14.091 14.39v1.5h1.5v-1.5h-1.5zM0 14.39h-1.5v1.5H0v-1.5zM28.716 1.483c3.592.518 6.685 2.333 9.085 4.869 2.374 2.487 3.731 5.438 3.731 8.038h3c0-3.584-1.822-7.24-4.56-10.11-2.713-2.82-6.666-5.108-10.806-5.763l-.45 2.966zm-14.85-2.966C9.726-.828 5.773 1.461 3.06 4.281.322 7.15-1.5 10.806-1.5 14.39h3c0-2.6 1.357-5.552 3.731-8.039 2.4-2.536 5.493-4.35 9.085-4.869l-.45-2.966zM28.94-1.5h-14.85v3h14.85v-3zm14.091 14.39H0v3h43.032v-3z"/><path id="path3_fill" d="M0 0h15.293v11.107H0V0z"/><path id="path4_stroke_2x" d="M0 0v-1.5h-1.5V0H0zm15.293 0h1.5v-1.5h-1.5V0zm0 11.107v1.5h1.5v-1.5h-1.5zM0 11.107h-1.5v1.5H0v-1.5zM0 1.5h15.293v-3H0v3zM13.793 0v11.107h3V0h-3zm1.5 9.607H0v3h15.293v-3zM1.5 11.107V0h-3v11.107h3z"/><path id="path5_fill" d="M0 .938C0 .42.42 0 .938 0h15.618a.938.938 0 010 1.876H.938A.938.938 0 010 .938z"/><path id="path6_stroke_2x" d="M.938 1.5h15.618v-3H.938v3zM16.556.376H.938v3h15.618v-3zM.938.376c.31 0 .562.252.562.562h-3A2.438 2.438 0 00.938 3.376v-3zm15.056.562c0-.31.252-.562.562-.562v3A2.438 2.438 0 0018.994.938h-3zm.562.562a.562.562 0 01-.562-.562h3A2.438 2.438 0 0016.556-1.5v3zM.938-1.5A2.438 2.438 0 00-1.5.938h3c0 .31-.252.562-.562.562v-3z"/><path id="path7_fill" d="M3.962 0h4.862l3.962 16.638H0L3.962 0z"/><path id="path8_fill" d="M4.01 0h4.92l4.01 16.944H0L4.01 0z"/><path id="path9_stroke_2x" d="M4.01 0v-1.5H2.822L2.55-.345 4.01 0zm4.92 0l1.46-.345-.273-1.155H8.93V0zm4.01 16.944v1.5h1.896l-.437-1.845-1.46.345zm-12.94 0l-1.46-.345-.436 1.845H0v-1.5zM4.01 1.5h4.92v-3H4.01v3zM7.47.345l4.01 16.944 2.92-.69L10.39-.345l-2.92.69zm5.47 15.099H0v3h12.94v-3zM1.46 17.289L5.469.345l-2.92-.69-4.009 16.944 2.92.69z"/><path id="path10_fill" d="M0 .938C0 .42.42 0 .938 0h6.084a.938.938 0 010 1.876H.938A.938.938 0 010 .938z"/><path id="path11_stroke_2x" d="M.938 1.5h6.084v-3H.938v3zM7.022.376H.938v3h6.084v-3zm-6.084 0c.31 0 .562.252.562.562h-3A2.438 2.438 0 00.938 3.376v-3zM6.46.938c0-.31.252-.562.562-.562v3A2.438 2.438 0 009.46.938h-3zm.562.562A.562.562 0 016.46.938h3A2.438 2.438 0 007.022-1.5v3zm-6.084-3A2.438 2.438 0 00-1.5.938h3c0 .31-.252.562-.562.562v-3z"/><path id="path12_fill" d="M0 .653a.653.653 0 111.306 0v3.959H0V.652z"/><path id="path13_stroke_2x" d="M1.306 4.612v1.5h1.5v-1.5h-1.5zM0 4.612h-1.5v1.5H0v-1.5zM-.194.652v3.96h3V.652h-3zm1.5 2.46H0v3h1.306v-3zm.194 1.5V.652h-3v3.96h3zM.653 1.5A.847.847 0 01-.194.653h3A2.153 2.153 0 00.653-1.5v3zm0-3A2.153 2.153 0 00-1.5.653h3c0 .468-.38.847-.847.847v-3z"/><path id="path14_stroke" d="M0-.75a.75.75 0 100 1.5v-1.5zM8.407.75a.75.75 0 000-1.5v1.5zM0 .75h8.407v-1.5H0v1.5z"/><path id="path15_stroke" d="M.75 0a.75.75 0 10-1.5 0h1.5zm-1.5 5.826a.75.75 0 101.5 0h-1.5zM-.75 0v5.826h1.5V0h-1.5z"/></defs></svg>