<svg width="33" height="53" xmlns="http://www.w3.org/2000/svg" xmlns:xlink="http://www.w3.org/1999/xlink"><g transform="translate(.77 1.38)" fill="#FFF"><use xlink:href="#path0_fill"/><use xlink:href="#path1_fill"/></g><g transform="translate(-3683 -4137)"><mask id="a"><g transform="translate(3683.77 4138.38)" fill="#C4C4C4"><use xlink:href="#path0_fill"/><use xlink:href="#path1_fill"/></g></mask><g mask="url(#a)" fill="#D9F5FD"><use xlink:href="#path2_fill" transform="translate(3688.75 4141.12)"/><use xlink:href="#path3_fill" transform="translate(3688.75 4141.12)"/></g></g><use xlink:href="#path4_stroke" transform="translate(.77 1.38)" fill="#102B7B"/><g transform="rotate(90 -2.525 20.885)"><use xlink:href="#path5_fill" fill="#FFF"/><use xlink:href="#path6_stroke" fill="#102B7B"/></g><defs><path id="path0_fill" d="M26.943 28.245l.003-.005c.952-1.574 1.9-3.142 2.72-4.722a16.203 16.203 0 001.816-7.483C31.482 7.18 24.434 0 15.74 0S0 7.18 0 16.035c0 2.703.656 5.25 1.816 7.484.82 1.58 1.769 3.15 2.722 4.725 2.516 4.157 5.063 8.43 5.374 13.35.034.55.479.999 1.031.999h9.596c.552 0 .997-.449 1.032-1 .31-4.919 2.857-9.19 5.372-13.348z"/><path id="path1_fill" d="M11.111 48.148c0-1.023.83-1.852 1.852-1.852h5.556a1.852 1.852 0 010 3.704h-5.556a1.852 1.852 0 01-1.852-1.852z"/><path id="path2_fill" d="M26.943 28.245l.003-.005c.952-1.574 1.9-3.142 2.72-4.722a16.203 16.203 0 001.816-7.483C31.482 7.18 24.434 0 15.74 0S0 7.18 0 16.035c0 2.703.656 5.25 1.816 7.484.82 1.58 1.769 3.15 2.722 4.725 2.516 4.157 3.214 8.43 3.292 13.349.009.552.455 1 1.008 1h11.701c.552 0 .997-.449 1.032-1 .31-4.919 2.857-9.19 5.372-13.348z"/><path id="path3_fill" d="M9.26 45.449c0-1.023.828-1.852 1.851-1.852h5.556a1.852 1.852 0 010 3.703H11.11A1.852 1.852 0 019.26 45.45z"/><path id="path4_stroke" d="M26.943 28.245l.642.388.001-.002-.643-.386zm.003-.005l-.642-.388-.001.003.643.385zm2.72-4.722L29 23.172l.666.346zm-27.85 0l-.666.346.666-.345zm2.722 4.726l.642-.388-.642.388zm5.374 13.35l-.749.046.749-.047zm16.39-13.74l-.002.005 1.286.772.003-.005-1.286-.771zM29 23.174c-.808 1.558-1.743 3.104-2.696 4.68l1.284.775c.952-1.574 1.913-3.163 2.744-4.765L29 23.173zm1.732-7.137A15.14 15.14 0 0129 23.171l1.332.691a17.278 17.278 0 001.9-7.828h-1.5zM15.74.75c8.266 0 14.99 6.83 14.99 15.285h1.5c0-9.256-7.37-16.785-16.49-16.785v1.5zM.75 16.035C.75 7.581 7.475.75 15.74.75v-1.5C6.62-.75-.75 6.779-.75 16.035h1.5zm1.731 7.139A15.145 15.145 0 01.75 16.035h-1.5a17.28 17.28 0 001.9 7.83l1.331-.691zm2.699 4.682c-.954-1.576-1.89-3.123-2.699-4.683l-1.331.691c.832 1.603 1.793 3.192 2.747 4.768l1.283-.776zm15.36 13.987h-9.597v1.5h9.596v-1.5zm-7.577 3.703a2.602 2.602 0 00-2.602 2.602h1.5c0-.608.493-1.102 1.102-1.102v-1.5zm5.556 0h-5.556v1.5h5.556v-1.5zm2.601 2.602a2.602 2.602 0 00-2.602-2.602v1.5c.609 0 1.102.494 1.102 1.102h1.5zm-2.602 2.602a2.602 2.602 0 002.602-2.602h-1.5c0 .609-.493 1.102-1.102 1.102v1.5zm-5.555 0h5.556v-1.5h-5.556v1.5zm-2.602-2.602a2.602 2.602 0 002.602 2.602v-1.5a1.102 1.102 0 01-1.102-1.102h-1.5zm.3-6.602c-.325-5.132-2.982-9.56-5.481-13.69l-1.283.776c2.53 4.184 4.97 8.302 5.266 13.008l1.497-.094zm15.64-13.69c-2.499 4.131-5.155 8.558-5.479 13.69l1.497.094c.297-4.706 2.735-8.823 5.266-13.007l-1.284-.776zM20.54 43.344c.978 0 1.722-.786 1.78-1.703l-1.497-.094c-.012.186-.156.297-.283.297v1.5zm-9.596-1.5c-.127 0-.271-.11-.283-.297l-1.497.094c.058.917.803 1.703 1.78 1.703v-1.5z"/><path id="path5_fill" d="M0 1.852C0 .829.83 0 1.852 0H20.37v3.704H1.852A1.852 1.852 0 010 1.852z"/><path id="path6_stroke" d="M20.37 0h.75a.75.75 0 00-.75-.75V0zm0 3.704v.75a.75.75 0 00.75-.75h-.75zM1.852-.75A2.602 2.602 0 00-.75 1.852h1.5C.75 1.243 1.243.75 1.852.75v-1.5zm18.518 0H1.853h-.001v1.5H20.37v-1.5zM1.852 4.454H20.37v-1.5H1.852v1.5zM-.75 1.852a2.602 2.602 0 002.602 2.602v-1.5A1.102 1.102 0 01.75 1.852h-1.5zm21.87 1.852V0h-1.5v3.704h1.5z"/></defs></svg>