<svg width="138" height="130" fill="none" xmlns="http://www.w3.org/2000/svg"><path d="M30.555 16.638C23.535 42.604 5.26 56.798 1.878 69.313c-3.383 12.514-3.294 40.736 54.27 56.299 57.563 15.564 75.568-17.504 79.286-31.27C152.86 29.895 42.987-29.352 30.554 16.638z" fill="#EFEFEF"/><path d="M30.111 21.25h43.75a7.776 7.776 0 017.778 7.778V89.306a7.776 7.776 0 01-7.778 7.777h-43.75V21.25z" fill="#F3F3F1"/><path d="M58.306 33.889v70a4.863 4.863 0 01-4.862 4.861c-.544 0-1.05-.078-1.555-.233l-23.333-7.778c-1.906-.661-3.306-2.489-3.306-4.628v-70a4.863 4.863 0 014.861-4.861c.545 0 1.05.078 1.556.233L55 29.261c1.906.661 3.306 2.489 3.306 4.628z" fill="#2FDF84"/><path d="M37.306 100.739C35.4 100.078 34 98.25 34 96.111v-70c0-1.318.537-2.512 1.392-3.387l-3.725-1.24a5.199 5.199 0 00-1.556-.234 4.863 4.863 0 00-4.861 4.861v70c0 2.139 1.4 3.967 3.306 4.628l23.333 7.778a5.214 5.214 0 001.555.233 4.822 4.822 0 003.47-1.474l-19.608-6.537z" fill="#00B871"/><path d="M22.333 120.417a5.841 5.841 0 01-5.833-5.834 5.84 5.84 0 015.833-5.833 5.84 5.84 0 015.834 5.833 5.841 5.841 0 01-5.834 5.834zm0-7.778a1.948 1.948 0 00-1.944 1.944c0 1.07.871 1.945 1.944 1.945a1.948 1.948 0 001.945-1.945 1.948 1.948 0 00-1.945-1.944zM100.32 11.979l2.75-2.75 5.5 5.5-2.75 2.75-5.5-5.5zM116.13 27.791l2.75-2.75 5.499 5.5-2.749 2.75-5.5-5.5zM99.633 30.537l5.5-5.5 2.749 2.75-5.499 5.5-2.75-2.75zM115.446 14.73l5.5-5.5 2.75 2.75-5.5 5.5-2.75-2.75z" fill="#A4AFC1"/><path d="M75.806 56.25h36.944v5.833H75.806V56.25z" fill="#000"/><path d="M100.228 75.811l-4.122-4.122 12.522-12.522-12.522-12.523 4.126-4.126 14.583 14.584a2.918 2.918 0 010 4.126L100.228 75.81zM53.445 111.667a8.023 8.023 0 01-2.415-.362l-23.396-7.797c-3.184-1.112-5.3-4.076-5.3-7.397v-70c0-4.29 3.488-7.778 7.778-7.778.836 0 1.625.117 2.415.362l23.395 7.797c3.185 1.113 5.3 4.076 5.3 7.397v70c0 4.289-3.488 7.778-7.777 7.778zm-23.333-87.5a1.948 1.948 0 00-1.945 1.944v70c0 .828.556 1.599 1.35 1.875l23.294 7.762c.167.054.381.085.634.085a1.948 1.948 0 001.944-1.944v-70c0-.828-.556-1.598-1.349-1.875l-23.294-7.762a2.08 2.08 0 00-.634-.085z" fill="#000"/><path d="M84.556 46.528h-5.834v-17.5a4.868 4.868 0 00-4.86-4.861h-43.75v-5.834h43.75c5.899 0 10.694 4.795 10.694 10.695v17.5zM73.861 100H58.306v-5.833H73.86a4.868 4.868 0 004.861-4.862v-17.5h5.834v17.5c0 5.9-4.795 10.695-10.695 10.695z" fill="#000"/></svg>