<svg width="140" height="140" viewBox="0 0 140 140" fill="none" xmlns="http://www.w3.org/2000/svg">
<path d="M31.5547 21.6378C24.5353 47.6039 6.26136 61.7984 2.87803 74.3128C-0.505307 86.8272 -0.415866 115.049 57.1475 130.612C114.711 146.176 132.716 113.108 136.434 99.3417C153.86 34.895 43.9875 -24.3522 31.5547 21.6378Z" fill="#EFEFEF"/>
<path d="M31.1113 26.25H74.8613C79.1585 26.25 82.6391 29.7306 82.6391 34.0278V39.8611V88.4722V94.3056C82.6391 98.6028 79.1585 102.083 74.8613 102.083H59.3058H31.1113V26.25Z" fill="#F3F3F1"/>
<path d="M59.3056 38.8889V108.889C59.3056 111.572 57.1278 113.75 54.4444 113.75C53.9 113.75 53.3944 113.672 52.8889 113.517L29.5556 105.739C27.65 105.078 26.25 103.25 26.25 101.111V31.1111C26.25 28.4278 28.4278 26.25 31.1111 26.25C31.6556 26.25 32.1611 26.3278 32.6667 26.4833L56 34.2611C57.9056 34.9222 59.3056 36.75 59.3056 38.8889Z" fill="#2FDF84"/>
<path d="M38.3056 105.739C36.4 105.078 35 103.25 35 101.111V31.1111C35 29.7928 35.5367 28.5989 36.3922 27.7239L32.6667 26.4833C32.1611 26.3278 31.6556 26.25 31.1111 26.25C28.4278 26.25 26.25 28.4278 26.25 31.1111V101.111C26.25 103.25 27.65 105.078 29.5556 105.739L52.8889 113.517C53.3944 113.672 53.9 113.75 54.4444 113.75C55.8094 113.75 57.0306 113.182 57.9133 112.276L38.3056 105.739Z" fill="#00B871"/>
<path d="M23.3333 125.417C20.1172 125.417 17.5 122.799 17.5 119.583C17.5 116.367 20.1172 113.75 23.3333 113.75C26.5494 113.75 29.1667 116.367 29.1667 119.583C29.1667 122.799 26.5494 125.417 23.3333 125.417ZM23.3333 117.639C22.26 117.639 21.3889 118.514 21.3889 119.583C21.3889 120.653 22.26 121.528 23.3333 121.528C24.4067 121.528 25.2778 120.653 25.2778 119.583C25.2778 118.514 24.4067 117.639 23.3333 117.639Z" fill="#A4AFC1"/>
<path d="M101.32 16.9789L104.07 14.229L109.57 19.7287L106.82 22.4786L101.32 16.9789Z" fill="#A4AFC1"/>
<path d="M117.13 32.7911L119.88 30.0413L125.379 35.541L122.63 38.2909L117.13 32.7911Z" fill="#A4AFC1"/>
<path d="M100.633 35.537L106.133 30.0373L108.882 32.7871L103.383 38.2868L100.633 35.537Z" fill="#A4AFC1"/>
<path d="M116.446 19.7301L121.946 14.2304L124.696 16.9802L119.196 22.48L116.446 19.7301Z" fill="#A4AFC1"/>
<path d="M76.8057 61.25H113.75V67.0833H76.8057V61.25Z" fill="black"/>
<path d="M101.228 80.8111L97.1055 76.6889L109.628 64.1666L97.1055 51.6444L101.232 47.5183L115.815 62.1016C116.954 63.2411 116.954 65.0883 115.815 66.2278L101.228 80.8111Z" fill="black"/>
<path d="M54.4451 116.667C53.609 116.667 52.8195 116.55 52.0301 116.305L28.6345 108.508C25.4495 107.396 23.334 104.432 23.334 101.111V31.1112C23.334 26.8217 26.8223 23.3334 31.1118 23.3334C31.9479 23.3334 32.7373 23.45 33.5268 23.695L56.9223 31.4923C60.1073 32.6045 62.2229 35.5678 62.2229 38.8889V108.889C62.2229 113.178 58.7345 116.667 54.4451 116.667ZM31.1118 29.1667C30.0384 29.1667 29.1673 30.0417 29.1673 31.1112V101.111C29.1673 101.939 29.7234 102.709 30.5168 102.986L53.8112 110.748C53.9784 110.802 54.1923 110.833 54.4451 110.833C55.5184 110.833 56.3895 109.958 56.3895 108.889V38.8889C56.3895 38.0606 55.8334 37.2906 55.0401 37.0145L31.7457 29.2523C31.5784 29.1978 31.3645 29.1667 31.1118 29.1667Z" fill="black"/>
<path d="M85.5558 51.5278H79.7224V34.0278C79.7224 31.3484 77.5408 29.1667 74.8613 29.1667H31.1113V23.3334H74.8613C80.7608 23.3334 85.5558 28.1284 85.5558 34.0278V51.5278Z" fill="black"/>
<path d="M74.8612 105H59.3057V99.1667H74.8612C77.5407 99.1667 79.7223 96.985 79.7223 94.3055V76.8055H85.5557V94.3055C85.5557 100.205 80.7607 105 74.8612 105Z" fill="black"/>
</svg>
