<svg width="53" height="53" xmlns="http://www.w3.org/2000/svg" xmlns:xlink="http://www.w3.org/1999/xlink"><use xlink:href="#path0_fill" transform="rotate(45 26.677 49.28)" fill="#D9F5FD"/><use xlink:href="#path1_fill" transform="rotate(45 31.875 47.523)" fill="#102B7B"/><g transform="rotate(45 6.29 52.125)"><use xlink:href="#path2_fill" fill="#FFF"/><use xlink:href="#path3_stroke" fill="#102B7B"/></g><defs><path id="path0_fill" fill-rule="evenodd" d="M12.324 0C9.55 0 5.602 20.712 5.487 23.92c-.177 4.974.777 10.485 1.739 16.041.62 3.587 1.244 7.192 1.569 10.683h7.13c.326-4.26 1.055-8.3 1.754-12.175.918-5.088 1.785-9.893 1.626-14.549C19.201 20.865 15.096 0 12.324 0zM0 35.752l2.947-1.684 2.02 10.944h-1.43L.756 47.2 0 35.75zm20.692.703l-2.285 9.072 3.67 6.371.97-1.523v-8.103l-.97-4.64-1.385-1.177z"/><path id="path1_fill" fill-rule="evenodd" d="M6.27 20.637c-.544 2.516-.867 4.441-.9 5.208-.171 3.889.474 8.094 1.328 12.458.491 2.232.854 3.973 1.162 5.662.63 3.046 1.231 6.105 1.602 9.097h7.654c.36-3.452 1.005-6.763 1.683-9.95.32-1.674.704-3.468 1.219-5.786l.144-.65h.009c.753-3.76 1.29-7.336 1.142-10.833-.03-.721-.361-2.621-.923-5.133-.556-2.49-1.32-5.497-2.19-8.415-.87-2.917-1.83-5.698-2.795-7.762-.477-1.023-.923-1.815-1.366-2.372-.461-.585-.728-.66-.79-.661-.06 0-.325.074-.78.652-.437.553-.875 1.338-1.343 2.355-.946 2.051-1.883 4.816-2.73 7.723a127.38 127.38 0 00-2.125 8.407zm15.378 16.295c.758-3.807 1.31-7.523 1.164-11.15-.037-.88-.402-2.913-.958-5.4a130.69 130.69 0 00-2.216-8.516c-.88-2.948-1.878-5.832-2.874-7.967-.502-1.076-1.037-2.018-1.547-2.668C14.724.607 14.063 0 13.25.001c-.814 0-1.471.603-1.96 1.225-.505.647-1.032 1.583-1.526 2.653-.977 2.123-1.952 4.994-2.807 7.932a129.59 129.59 0 00-2.153 8.509c-.54 2.497-.894 4.546-.933 5.46-.148 3.521.34 7.298 1.038 11.132-2.178.74-4.872 3.814-4.873 11.076 0 3.335-.014 5.972-.024 7.88l-.001.166-.005.885c-.005.97-.008 1.678-.004 2.112.002.221.006.392.013.487.002.03.007.076.011.107.004.022.014.07.022.101a.753.753 0 001.44.037 1.43 1.43 0 00.038-.151c.249-1.493.769-4.28 1.818-6.701.52-1.21 1.12-2.247 1.895-3.019.611-.615 1.282-1.005 2.04-1.119.313 1.727.582 3.439.77 5.123a.75.75 0 00.746.666h9a.75.75 0 00.747-.68c.16-1.736.398-3.437.681-5.108.756.114 1.427.504 2.038 1.118.776.772 1.374 1.81 1.895 3.018 1.05 2.423 1.569 5.21 1.818 6.702a.773.773 0 00.197.423.753.753 0 001.1.01c.137-.144.177-.307.18-.319a1.208 1.208 0 00.034-.208c.007-.096.011-.266.013-.487.004-.434.002-1.142-.004-2.112l-.005-.885v-.097c-.011-1.913-.026-4.574-.026-7.948 0-7.199-2.647-10.282-4.815-11.057zm-1.38 6.48c.156-.73.314-1.456.471-2.177a707.064 707.064 0 00.602-2.8c1.366.64 3.623 2.962 3.623 9.553 0 2.096.005 3.918.012 5.455-.137-.38-.285-.757-.443-1.126-.558-1.291-1.307-2.567-2.208-3.482-.75-.755-1.653-1.319-2.719-1.518a95.89 95.89 0 01.663-3.905zm-15.08-4.99l.043.194.211 1.063c.208 1.034.425 2.07.64 3.107l.306 1.47c.183 1.006.347 1.994.506 3.06-1.066.2-1.97.765-2.719 1.519-.901.915-1.65 2.19-2.208 3.481-.159.37-.306.747-.443 1.127.007-1.537.012-3.359.013-5.454 0-6.64 2.288-8.946 3.652-9.567z"/><path id="path2_fill" d="M5 2.5a2.5 2.5 0 11-5 0 2.5 2.5 0 015 0z"/><path id="path3_stroke" d="M4.25 2.5A1.75 1.75 0 012.5 4.25v1.5A3.25 3.25 0 005.75 2.5h-1.5zM2.5 4.25A1.75 1.75 0 01.75 2.5h-1.5A3.25 3.25 0 002.5 5.75v-1.5zM.75 2.5c0-.966.784-1.75 1.75-1.75v-1.5A3.25 3.25 0 00-.75 2.5h1.5zM2.5.75c.966 0 1.75.784 1.75 1.75h1.5A3.25 3.25 0 002.5-.75v1.5z"/></defs></svg>