<svg width="34" height="34" viewBox="0 0 34 34" fill="none" xmlns="http://www.w3.org/2000/svg">
<path d="M14.3877 9.6578C15.21 7.12722 18.79 7.12722 19.6123 9.6578C20.1139 11.2015 21.5524 12.2467 23.1756 12.2467C25.8364 12.2467 26.9427 15.6516 24.7901 17.2156C23.4769 18.1696 22.9274 19.8608 23.429 21.4045C24.2512 23.9351 21.3549 26.0394 19.2023 24.4754C17.8891 23.5213 16.1109 23.5213 14.7977 24.4754C12.6451 26.0394 9.74875 23.9351 10.571 21.4045C11.0726 19.8608 10.5231 18.1696 9.20991 17.2156C7.05728 15.6516 8.16358 12.2467 10.8244 12.2467C12.4476 12.2467 13.8861 11.2015 14.3877 9.6578Z"  fill="#ED2C49" stroke="#ED2C49"/>
</svg>
