<svg width="27" height="27" viewBox="0 0 27 27" fill="none" xmlns="http://www.w3.org/2000/svg">
<path d="M14.787 9.19237C14.7476 9.11812 15.1718 9.07763 15.2471 9.07763C15.3304 9.08775 15.0266 9.58612 14.787 9.19237ZM12.366 5.73637L12.4875 5.7015C12.5595 5.76337 12.4065 5.80837 12.4301 5.8545C12.5269 6.02887 12.4538 6.1335 12.4391 6.228C12.4234 6.32362 12.3221 6.282 12.2715 6.33263C12.2119 6.40688 12.5618 6.417 12.5662 6.42825C12.5786 6.46538 12.1444 6.52838 12.2242 6.62063C12.3323 6.77363 13.1513 6.40125 13.0208 6.42263C13.2739 6.2955 13.0534 6.282 12.9116 6.20888C12.8633 5.967 12.8228 5.5935 12.672 5.44388L12.771 5.32912C12.5393 4.99275 12.366 5.73637 12.366 5.73637ZM27 13.5C27 20.9554 20.9554 27 13.5 27C6.0435 27 0 20.9554 0 13.5C0 6.04463 6.0435 0 13.5 0C20.9554 0 27 6.04463 27 13.5ZM17.6512 7.45763C17.6445 7.29338 17.4375 7.13812 17.2215 7.42275C17.0696 7.6185 17.0966 7.91663 17.0145 8.04938C16.8975 8.24625 17.6524 8.43075 17.6524 8.24512C17.6805 7.9335 18.4759 8.17425 18.6311 8.217C18.9101 8.29463 19.3545 7.96275 18.8685 7.78837C18.4691 7.64212 18.2587 7.48575 18.2227 7.2C18.2227 7.2 18.4343 7.002 18.342 7.01325C18.0968 7.04363 17.6512 7.8975 17.6512 7.45763ZM24.7342 13.5C24.7342 12.3356 24.5351 11.16 24.3326 10.539C24.2674 10.3433 24.12 10.188 23.9288 10.1137C23.6408 10.0012 22.4246 10.7854 22.2413 10.3995C22.1209 10.1419 21.8767 10.5638 21.5977 10.4085C21.4627 10.3342 21.087 9.82912 20.9171 9.891C20.5695 10.0159 21.4504 10.9755 21.6911 11.1015C21.9172 10.9305 22.6496 10.5784 22.8071 11.0588C23.1086 11.9633 21.978 12.9544 21.3997 13.4764C20.5357 14.2571 20.6978 12.9712 20.1094 12.5179C19.8 12.2805 19.8034 11.7754 19.4906 11.601C19.3511 11.5223 18.711 10.7854 18.7166 10.6864L18.6975 10.8731C18.5918 10.953 18.3668 10.5716 18.3431 10.512C18.3431 10.8439 18.8831 11.3726 19.062 11.6381C19.3669 12.0938 19.53 12.7575 19.9035 13.1299C20.1038 13.3301 20.8687 14.1581 21.0679 14.1401C21.285 14.121 21.9713 13.6249 22.0928 13.653C22.8173 13.824 20.3872 17.2586 20.1566 17.6839C19.9665 18.0405 20.3119 18.9225 20.2838 19.3444C20.2511 19.8315 19.8675 19.989 19.5041 20.2545C19.1149 20.5391 19.206 21.0926 18.8786 21.2951C18.297 21.6529 17.8785 22.8173 17.0527 22.8116C16.8097 22.8105 15.7703 23.2166 15.6341 22.8195C15.5284 22.5315 15.3866 22.3132 15.237 22.0286C15.0907 21.7496 15.2201 21.4605 15.0424 21.2141C14.9198 21.0431 14.508 20.655 14.4709 20.4525C14.4686 20.2781 14.6025 19.7483 14.7859 19.656C15.0435 19.5244 14.8354 19.1408 14.8039 18.918C14.7499 18.5198 14.5035 18.1912 14.2076 17.9606C13.77 17.6243 13.9961 17.3565 14.0985 16.8761C14.0985 16.6466 13.959 16.3451 13.6508 16.4351C13.0162 16.6196 13.2086 15.9401 12.7463 15.9705C12.4132 15.9941 12.141 16.2056 11.8316 16.299C11.4424 16.416 11.0441 16.2067 10.6594 16.1584C9.0765 15.9581 8.56012 14.1491 8.973 12.8441C9.01462 12.6304 8.84475 12.2344 8.919 12.069C9.09675 11.673 9.459 11.2286 9.77625 10.9282C9.954 10.7595 10.1824 10.8022 10.3916 10.6706C10.7145 10.467 10.719 10.0485 11.0351 9.792C11.4851 9.42638 12.0994 9.43425 12.6866 9.3555C12.9994 9.31388 14.1896 9.05625 14.3775 9.288C14.3775 9.33075 14.5924 9.9675 14.3561 9.9315C14.8432 9.95738 15.5374 10.7741 15.9998 10.5829C16.2371 10.4839 16.1505 9.75488 16.6376 10.107C16.9324 10.3185 18.2531 10.413 18.5276 10.1846C18.6964 10.0451 18.7909 9.13837 18.5861 9.036C18.7166 9.16537 17.8988 9.1755 17.8223 9.14625C17.6873 9.09675 17.5613 9.2745 17.3441 9.17437C17.4746 9.23625 16.6174 8.77612 17.0989 8.424C16.8975 8.57137 16.7096 8.38237 16.4925 8.54437C16.3429 8.66587 16.5623 8.74687 16.3485 8.85262C16.0087 9.02475 15.7522 8.262 15.624 8.17537C15.4935 8.08988 14.4832 7.38112 14.7577 7.8435L15.6454 8.72663C15.6015 8.75475 15.4125 8.40487 15.4125 8.66025C15.4721 8.50838 15.435 9.31163 15.2955 9.05062C15.2336 8.9505 15.3968 8.89425 15.3022 8.74912C15.3022 8.6535 15.0457 8.56013 14.9963 8.49487C14.8556 8.3205 14.4821 7.93575 14.2796 7.8435C14.2234 7.81763 13.4201 7.94137 13.3526 7.96725C13.2739 8.0775 13.2064 8.19338 13.1512 8.31713C12.9847 8.379 12.8284 8.45887 12.6799 8.55787L12.5033 8.955C12.4268 9.02363 11.6426 9.28238 11.6381 9.2925C11.6708 9.20813 11.0903 9.10013 11.1285 8.93138C11.1713 8.74575 11.3681 8.16638 11.3175 7.95487C11.2635 7.73325 12.5258 8.27437 12.6068 7.6905C12.6394 7.43738 12.6585 7.14262 12.2546 7.09987C12.3311 7.10887 13.0365 6.82313 13.1535 6.69488C13.3177 6.50588 13.6946 6.19762 13.968 6.19762C14.2875 6.19762 14.2189 5.733 14.3663 5.50575C14.5136 5.56537 14.2875 5.92875 14.4641 6.07613C14.4529 5.96025 14.9647 6.14025 15.0142 6.11325C15.1312 6.0525 15.7837 6.0885 15.6825 5.7825C15.57 5.47087 15.7399 5.56313 15.8861 5.49788C15.8614 5.508 16.2686 4.8015 16.3384 5.03325C16.29 4.79475 15.8647 5.1165 15.7163 5.10413C15.3731 5.07713 15.5183 4.51912 15.6476 4.356C15.7478 4.22662 15.3742 4.068 15.3698 4.3155C15.363 4.68563 15.0187 5.02087 15.0986 5.5125C15.2201 6.25388 14.2718 5.33362 14.1885 5.38425C13.8735 5.5755 13.6159 5.1435 13.779 4.88475C13.9455 4.62038 14.3471 4.63275 14.5125 4.34925C14.6295 4.149 14.7656 3.91613 14.9456 3.76425C15.5475 3.25912 15.714 3.663 16.3136 3.71813C16.8997 3.77213 16.5116 3.85763 16.4306 4.08262C16.353 4.29637 16.7524 4.37287 16.8908 4.194C16.9695 4.0905 17.1484 3.83063 17.226 3.63825C17.3261 3.3885 18.2396 3.41663 17.6017 3.03525C17.181 2.78437 15.3472 2.27925 14.1188 2.27925C13.8533 2.27925 13.6676 2.57512 13.4651 2.74275C13.0646 3.07463 12.0386 3.726 11.4683 3.528C10.8844 3.32662 9.6345 4.2705 9.43425 4.27725C9.36112 4.28175 9.43875 3.564 9.837 3.51113C9.66488 3.537 11.2399 2.71575 11.1971 2.54475C11.1454 2.34225 8.04825 3.4695 8.18662 3.69563C8.253 3.79913 8.523 3.79912 8.16862 4.02637C7.96613 4.149 7.75012 4.9275 7.56 4.9275C6.99187 5.17613 6.95587 4.43813 6.32362 5.38763L5.31788 5.79263C3.82388 7.38 2.79 9.39038 2.41537 11.6235C2.40075 11.7124 2.79113 11.8778 2.84175 11.9385C2.96775 12.0893 2.96775 12.7395 3.02963 12.9521C3.18488 13.4899 3.5685 13.7891 3.86213 14.2785C4.03538 14.5699 4.32338 15.3068 4.23225 15.6128C4.35375 15.4125 5.436 16.5296 5.634 16.7625C6.09975 17.3104 6.45862 17.9741 5.70262 18.5164C5.4585 18.6919 6.07387 19.7865 5.75663 20.0554L5.3505 20.16C4.95 20.4064 5.13112 21.0105 5.37413 21.2648C7.41937 23.4034 10.3016 24.7376 13.4966 24.7376C19.7033 24.7376 24.7342 19.7066 24.7342 13.5ZM11.7889 6.34838C11.9295 6.2865 12.1185 6.28875 12.1388 6.10087C12.1556 5.93437 12.1882 6.04912 12.2288 5.98837C12.2681 5.92875 12.1534 5.83313 12.105 5.82413C12.033 5.80837 11.9835 5.90175 11.9374 5.94112L11.8564 5.9625L11.7799 6.06038L11.7889 6.11438L11.691 6.23362C11.5954 6.32812 11.6932 6.39 11.7889 6.34838Z" fill="black"/>
</svg>
